{
  "source": "C:\\Users\\Peter\\Desktop\\stuff\\MIUN\\quantitative_research\\video_compression\\videos\\BVI-HD\\BVI-HD_CDVL_videos\\ORIG\\Typing_1920x1080_60fps.mp4",
  "output": "C:\\Users\\Peter\\Desktop\\stuff\\MIUN\\quantitative_research\\video_compression\\compressed_videos\\BVI-HD\\av1\\1\\Typing_1920x1080_60fps_av1.mkv",
  "codec": "av1",
  "ok": "Input #0, mov,mp4,m4a,3gp,3g2,mj2, from 'C:\\Users\\Peter\\Desktop\\stuff\\MIUN\\quantitative_research\\video_compression\\videos\\BVI-HD\\BVI-HD_CDVL_videos\\ORIG\\Typing_1920x1080_60fps.mp4':\n  Metadata:\n    major_brand     : isom\n    minor_version   : 512\n    compatible_brands: isomiso2avc1mp41\n    encoder         : Lavf54.28.101\n  Duration: 00:00:05.00, start: 0.000000, bitrate: 203453 kb/s\n  Stream #0:0[0x1](und): Video: h264 (High 4:4:4 Predictive) (avc1 / 0x31637661), yuv420p(progressive), 1920x1080, 203448 kb/s, 60 fps, 60 tbr, 60 tbn (default)\n    Metadata:\n      handler_name    : VideoHandler\n      vendor_id       : [0][0][0][0]\n[out#0/matroska @ 0000027010ed9000] Codec AVOption b:a (set bitrate (in bits/s)) has not been used for any stream. The most likely reason is either wrong type (e.g. a video option with no video streams) or that it is a private option of some decoder which was not actually used for any stream.\nStream mapping:\n  Stream #0:0 -> #0:0 (h264 (native) -> av1 (libsvtav1))\nPress [q] to stop, [?] for help\nSvt[info]: -------------------------------------------\nSvt[info]: SVT [version]:\tSVT-AV1 Encoder Lib v3.1.0-19-g6ecfe8ec\nSvt[info]: SVT [build]  :\tGCC 15.2.0\t 64 bit\nSvt[info]: LIB Build date: Aug 17 2025 11:37:13\nSvt[info]: -------------------------------------------\nSvt[info]: Level of Parallelism: 5\nSvt[info]: Number of PPCS 93\nSvt[info]: [asm level on system : up to avx2]\nSvt[info]: [asm level selected : up to avx2]\nSvt[info]: -------------------------------------------\nSvt[info]: SVT [config]: main profile\ttier (auto)\tlevel (auto)\nSvt[info]: SVT [config]: width / height / fps numerator / fps denominator \t\t: 1920 / 1080 / 60 / 1\nSvt[info]: SVT [config]: bit-depth / color format \t\t\t\t\t: 8 / YUV420\nSvt[info]: SVT [config]: preset / tune / pred struct \t\t\t\t\t: 4 / PSNR / random access\nSvt[info]: SVT [config]: gop size / mini-gop size / key-frame type \t\t\t: 321 / 16 / key frame\nSvt[info]: SVT [config]: BRC mode / target bitrate (kbps)\t\t\t\t: VBR / 1000 \nSvt[info]: SVT [config]: AQ mode / Variance Boost \t\t\t\t\t: 2 / 0\nSvt[info]: SVT [config]: sharpness / luminance-based QP bias \t\t\t\t: 0 / 0\nSvt[info]: SVT [config]: QP scale compress strength \t\t\t\t\t: 0\nSvt[info]: -------------------------------------------\nOutput #0, matroska, to 'C:\\Users\\Peter\\Desktop\\stuff\\MIUN\\quantitative_research\\video_compression\\compressed_videos\\BVI-HD\\av1\\1\\Typing_1920x1080_60fps_av1.mkv':\n  Metadata:\n    major_brand     : isom\n    minor_version   : 512\n    compatible_brands: isomiso2avc1mp41\n    encoder         : Lavf62.3.100\n  Stream #0:0(und): Video: av1 (AV01 / 0x31305641), yuv420p(tv, progressive), 1920x1080, q=2-31, 1000 kb/s, 60 fps, 1k tbn (default)\n    Metadata:\n      encoder         : Lavc62.11.100 libsvtav1\n      handler_name    : VideoHandler\n      vendor_id       : [0][0][0][0]\n    Side data:\n      cpb: bitrate max/min/avg: 0/0/1000000 buffer size: 1000000 vbv_delay: N/A\nframe=    0 fps=0.0 q=0.0 size=       0KiB time=N/A bitrate=N/A speed=N/A elapsed=0:00:01.05    \nframe=    0 fps=0.0 q=0.0 size=       0KiB time=N/A bitrate=N/A speed=N/A elapsed=0:00:01.57    \nframe=    0 fps=0.0 q=0.0 size=       0KiB time=N/A bitrate=N/A speed=N/A elapsed=0:00:02.12    \nframe=    0 fps=0.0 q=0.0 size=       0KiB time=N/A bitrate=N/A speed=N/A elapsed=0:00:02.66    \nframe=    0 fps=0.0 q=0.0 size=       0KiB time=N/A bitrate=N/A speed=N/A elapsed=0:00:03.21    \nframe=    0 fps=0.0 q=0.0 size=       0KiB time=N/A bitrate=N/A speed=N/A elapsed=0:00:03.75    \nframe=    0 fps=0.0 q=0.0 size=       0KiB time=N/A bitrate=N/A speed=N/A elapsed=0:00:04.30    \nframe=    0 fps=0.0 q=0.0 size=       0KiB time=N/A bitrate=N/A speed=N/A elapsed=0:00:04.84    \nframe=    0 fps=0.0 q=0.0 size=       0KiB time=N/A bitrate=N/A speed=N/A elapsed=0:00:05.36    \nframe=    1 fps=0.2 q=13.0 size=       1KiB time=00:00:00.00 bitrate=N/A speed=   0x elapsed=0:00:05.91    \nframe=    3 fps=0.5 q=45.0 size=       1KiB time=00:00:00.03 bitrate= 170.9kbits/s speed=0.00516x elapsed=0:00:06.45    \nframe=    9 fps=1.3 q=41.0 size=       1KiB time=00:00:00.11 bitrate=  48.8kbits/s speed=0.0167x elapsed=0:00:07.00    \nframe=   15 fps=2.0 q=44.0 size=       1KiB time=00:00:00.23 bitrate=  24.4kbits/s speed=0.031x elapsed=0:00:07.53    \nframe=   22 fps=2.7 q=40.0 size=       1KiB time=00:00:00.35 bitrate=  16.3kbits/s speed=0.0434x elapsed=0:00:08.07    \nframe=   29 fps=3.4 q=41.0 size=       1KiB time=00:00:00.45 bitrate=  12.7kbits/s speed=0.0523x elapsed=0:00:08.60    \nframe=   37 fps=4.0 q=43.0 size=       1KiB time=00:00:00.60 bitrate=   9.5kbits/s speed=0.0656x elapsed=0:00:09.14    \nframe=   43 fps=4.4 q=44.0 size=       1KiB time=00:00:00.70 bitrate=   8.1kbits/s speed=0.0724x elapsed=0:00:09.66    \nframe=   53 fps=5.2 q=43.0 size=       1KiB time=00:00:00.86 bitrate=   6.6kbits/s speed=0.0851x elapsed=0:00:10.18    \nframe=   58 fps=5.4 q=36.0 size=       1KiB time=00:00:00.95 bitrate=   6.0kbits/s speed=0.0887x elapsed=0:00:10.70    \nframe=   64 fps=5.7 q=38.0 size=       1KiB time=00:00:01.05 bitrate=   5.4kbits/s speed=0.0934x elapsed=0:00:11.24    \nframe=   70 fps=5.9 q=40.0 size=       1KiB time=00:00:01.15 bitrate=   5.0kbits/s speed=0.0977x elapsed=0:00:11.76    \nframe=   74 fps=6.0 q=40.0 size=       1KiB time=00:00:01.21 bitrate=   4.7kbits/s speed=0.099x elapsed=0:00:12.28    \nframe=   80 fps=6.2 q=36.0 size=       1KiB time=00:00:01.28 bitrate=   4.4kbits/s speed=0.0995x elapsed=0:00:12.89    \nframe=   85 fps=6.3 q=42.0 size=       1KiB time=00:00:01.40 bitrate=   4.1kbits/s speed=0.104x elapsed=0:00:13.50    \nframe=   90 fps=6.4 q=39.0 size=       1KiB time=00:00:01.46 bitrate=   3.9kbits/s speed=0.104x elapsed=0:00:14.08    \nframe=   96 fps=6.6 q=38.0 size=       1KiB time=00:00:01.56 bitrate=   3.6kbits/s speed=0.107x elapsed=0:00:14.65    \nframe=  102 fps=6.7 q=43.0 size=       1KiB time=00:00:01.68 bitrate=   3.4kbits/s speed=0.111x elapsed=0:00:15.23    \nframe=  108 fps=6.8 q=39.0 size=       1KiB time=00:00:01.78 bitrate=   3.2kbits/s speed=0.113x elapsed=0:00:15.79    \nframe=  115 fps=7.0 q=41.0 size=       1KiB time=00:00:01.90 bitrate=   3.0kbits/s speed=0.116x elapsed=0:00:16.36    \nframe=  122 fps=7.2 q=38.0 size=       1KiB time=00:00:02.01 bitrate=   2.8kbits/s speed=0.119x elapsed=0:00:16.89    \nframe=  129 fps=7.4 q=21.0 size=       1KiB time=00:00:02.13 bitrate=   2.7kbits/s speed=0.123x elapsed=0:00:17.40    \nframe=  137 fps=7.6 q=29.0 size=       1KiB time=00:00:02.26 bitrate=   2.5kbits/s speed=0.126x elapsed=0:00:17.92    \nframe=  148 fps=8.0 q=41.0 size=       1KiB time=00:00:02.45 bitrate=   2.3kbits/s speed=0.133x elapsed=0:00:18.44    \nframe=  158 fps=8.3 q=39.0 size=       1KiB time=00:00:02.61 bitrate=   2.2kbits/s speed=0.138x elapsed=0:00:18.97    \nframe=  169 fps=8.7 q=29.0 size=       1KiB time=00:00:02.80 bitrate=   2.0kbits/s speed=0.144x elapsed=0:00:19.48    \nframe=  180 fps=9.0 q=35.0 size=       1KiB time=00:00:02.98 bitrate=   1.9kbits/s speed=0.149x elapsed=0:00:20.02    \nframe=  186 fps=9.1 q=36.0 size=       1KiB time=00:00:03.06 bitrate=   1.9kbits/s speed=0.149x elapsed=0:00:20.55    \nframe=  195 fps=9.3 q=41.0 size=       1KiB time=00:00:03.23 bitrate=   1.8kbits/s speed=0.153x elapsed=0:00:21.08    \nframe=  205 fps=9.5 q=40.0 size=       1KiB time=00:00:03.40 bitrate=   1.7kbits/s speed=0.157x elapsed=0:00:21.60    \nframe=  213 fps=9.6 q=41.0 size=       1KiB time=00:00:03.53 bitrate=   1.6kbits/s speed=0.16x elapsed=0:00:22.12    \nframe=  221 fps=9.8 q=41.0 size=       1KiB time=00:00:03.66 bitrate=   1.6kbits/s speed=0.162x elapsed=0:00:22.63    \nframe=  233 fps= 10 q=31.0 size=       1KiB time=00:00:03.86 bitrate=   1.5kbits/s speed=0.167x elapsed=0:00:23.15    \nframe=  241 fps= 10 q=24.0 size=       1KiB time=00:00:04.00 bitrate=   1.4kbits/s speed=0.169x elapsed=0:00:23.66    \nframe=  249 fps= 10 q=31.0 size=       1KiB time=00:00:04.13 bitrate=   1.4kbits/s speed=0.171x elapsed=0:00:24.22    \nframe=  259 fps= 10 q=39.0 size=       1KiB time=00:00:04.30 bitrate=   1.3kbits/s speed=0.174x elapsed=0:00:24.72    \nframe=  265 fps= 10 q=31.0 size=       1KiB time=00:00:04.40 bitrate=   1.3kbits/s speed=0.174x elapsed=0:00:25.25    \nframe=  277 fps= 11 q=43.0 size=       1KiB time=00:00:04.56 bitrate=   1.2kbits/s speed=0.177x elapsed=0:00:25.80    \nframe=  281 fps= 11 q=33.0 size=       1KiB time=00:00:04.66 bitrate=   1.2kbits/s speed=0.177x elapsed=0:00:26.35    \nframe=  295 fps= 11 q=42.0 size=       1KiB time=00:00:04.90 bitrate=   1.2kbits/s speed=0.182x elapsed=0:00:26.87    \n[out#0/matroska @ 0000027010ed9000] video:553KiB audio:0KiB subtitle:0KiB other streams:0KiB global headers:0KiB muxing overhead: 0.372837%\nframe=  300 fps= 11 q=47.0 Lsize=     556KiB time=00:00:04.98 bitrate= 913.2kbits/s speed=0.185x elapsed=0:00:26.93    \n",
  "seconds": 27.513930797576904,
  "probe_out": {}
}